<svg width="111" height="134" viewBox="0 0 111 134" fill="none" xmlns="http://www.w3.org/2000/svg">
<path d="M76.7373 57.6229H68.7373C68.7373 49.6739 62.2703 43.2059 54.3203 43.2059V35.2059C66.6813 35.2059 76.7373 45.2629 76.7373 57.6229Z" fill="#454258"/>
<path d="M57.1025 77.1839C44.7415 77.1839 34.6855 67.1279 34.6855 54.7679H42.6855C42.6855 62.7169 49.1525 69.1839 57.1025 69.1839V77.1839Z" fill="#454258"/>
<path d="M88.3452 0.662964H22.3802C10.3102 0.662964 0.492188 10.482 0.492188 22.554V88.513C0.492188 100.585 10.3102 110.407 22.3802 110.407H46.6342L33.7852 133.188H43.1222L50.6932 119.768V133.188H60.0292V119.759L67.6062 133.188H76.9422L64.0892 110.407H88.3452C100.415 110.407 110.233 100.585 110.233 88.513V22.554C110.234 10.482 100.416 0.662964 88.3452 0.662964ZM55.3612 86.417C38.6612 86.417 25.1222 72.876 25.1222 56.174C25.1222 39.471 38.6602 25.93 55.3612 25.93C72.0672 25.93 85.6072 39.471 85.6072 56.174C85.6072 72.876 72.0672 86.417 55.3612 86.417ZM88.4032 29.428C84.5732 29.428 81.4392 26.294 81.4392 22.464C81.4392 18.634 84.5732 15.5 88.4032 15.5C92.2332 15.5 95.3672 18.634 95.3672 22.464C95.3672 26.294 92.2332 29.428 88.4032 29.428Z" fill="url(#paint0_linear_50_11)"/>
<defs>
<linearGradient id="paint0_linear_50_11" x1="6.32899" y1="7.66246" x2="104.398" y2="105.732" gradientUnits="userSpaceOnUse">
<stop stop-color="#21D4FD"/>
<stop offset="1" stop-color="#B721FF"/>
</linearGradient>
</defs>
</svg>
