<svg width="287" height="134" viewBox="0 0 287 134" fill="none" xmlns="http://www.w3.org/2000/svg">
<path d="M140.835 40.8308V12.4672H150.419C152.644 12.4672 154.463 12.8688 155.876 13.6721C157.297 14.4661 158.35 15.5417 159.033 16.899C159.716 18.2562 160.058 19.7704 160.058 21.4416C160.058 23.1128 159.716 24.6316 159.033 25.9981C158.359 27.3645 157.316 28.454 155.903 29.2665C154.491 30.0698 152.681 30.4714 150.474 30.4714H143.605V27.4246H150.363C151.887 27.4246 153.11 27.1614 154.034 26.6351C154.957 26.1089 155.626 25.3979 156.042 24.5023C156.466 23.5975 156.679 22.5773 156.679 21.4416C156.679 20.306 156.466 19.2903 156.042 18.3947C155.626 17.4991 154.952 16.7974 154.02 16.2896C153.087 15.7726 151.85 15.514 150.308 15.514H144.27V40.8308H140.835ZM168.416 28.0339V40.8308H165.148V12.4672H168.416V22.8819H168.693C169.192 21.7832 169.94 20.9107 170.937 20.2644C171.943 19.6089 173.282 19.2811 174.953 19.2811C176.403 19.2811 177.672 19.5719 178.762 20.1536C179.851 20.7261 180.696 21.6078 181.296 22.7988C181.906 23.9807 182.21 25.4856 182.21 27.3138V40.8308H178.942V27.5354C178.942 25.8457 178.503 24.5393 177.626 23.616C176.758 22.6834 175.553 22.2172 174.011 22.2172C172.94 22.2172 171.98 22.4434 171.131 22.8958C170.29 23.3482 169.626 24.0084 169.136 24.8763C168.656 25.7442 168.416 26.7967 168.416 28.0339ZM196.832 41.274C194.911 41.274 193.226 40.817 191.777 39.9029C190.336 38.9888 189.21 37.7101 188.397 36.0666C187.594 34.4231 187.193 32.5027 187.193 30.3052C187.193 28.0893 187.594 26.155 188.397 24.5023C189.21 22.8496 190.336 21.5663 191.777 20.6522C193.226 19.7381 194.911 19.2811 196.832 19.2811C198.752 19.2811 200.433 19.7381 201.873 20.6522C203.323 21.5663 204.449 22.8496 205.252 24.5023C206.065 26.155 206.471 28.0893 206.471 30.3052C206.471 32.5027 206.065 34.4231 205.252 36.0666C204.449 37.7101 203.323 38.9888 201.873 39.9029C200.433 40.817 198.752 41.274 196.832 41.274ZM196.832 38.3379C198.291 38.3379 199.491 37.964 200.433 37.2161C201.374 36.4682 202.071 35.4849 202.524 34.2662C202.976 33.0474 203.203 31.7271 203.203 30.3052C203.203 28.8834 202.976 27.5584 202.524 26.3305C202.071 25.1025 201.374 24.1099 200.433 23.3528C199.491 22.5957 198.291 22.2172 196.832 22.2172C195.373 22.2172 194.173 22.5957 193.231 23.3528C192.289 24.1099 191.592 25.1025 191.14 26.3305C190.687 27.5584 190.461 28.8834 190.461 30.3052C190.461 31.7271 190.687 33.0474 191.14 34.2662C191.592 35.4849 192.289 36.4682 193.231 37.2161C194.173 37.964 195.373 38.3379 196.832 38.3379ZM220.712 19.5581V22.328H209.688V19.5581H220.712ZM212.901 14.4615H216.169V34.7371C216.169 35.6604 216.303 36.3528 216.571 36.8145C216.848 37.2669 217.199 37.5716 217.623 37.7285C218.057 37.8763 218.514 37.9501 218.994 37.9501C219.354 37.9501 219.65 37.9317 219.881 37.8947C220.112 37.8486 220.296 37.8116 220.435 37.7839L221.099 40.72C220.878 40.8031 220.569 40.8862 220.172 40.9693C219.775 41.0616 219.271 41.1078 218.662 41.1078C217.739 41.1078 216.834 40.9093 215.947 40.5123C215.07 40.1153 214.341 39.5105 213.759 38.698C213.187 37.8855 212.901 36.8606 212.901 35.6234V14.4615ZM234.042 41.274C232.121 41.274 230.436 40.817 228.987 39.9029C227.546 38.9888 226.42 37.7101 225.607 36.0666C224.804 34.4231 224.403 32.5027 224.403 30.3052C224.403 28.0893 224.804 26.155 225.607 24.5023C226.42 22.8496 227.546 21.5663 228.987 20.6522C230.436 19.7381 232.121 19.2811 234.042 19.2811C235.962 19.2811 237.643 19.7381 239.083 20.6522C240.532 21.5663 241.659 22.8496 242.462 24.5023C243.275 26.155 243.681 28.0893 243.681 30.3052C243.681 32.5027 243.275 34.4231 242.462 36.0666C241.659 37.7101 240.532 38.9888 239.083 39.9029C237.643 40.817 235.962 41.274 234.042 41.274ZM234.042 38.3379C235.501 38.3379 236.701 37.964 237.643 37.2161C238.584 36.4682 239.281 35.4849 239.734 34.2662C240.186 33.0474 240.412 31.7271 240.412 30.3052C240.412 28.8834 240.186 27.5584 239.734 26.3305C239.281 25.1025 238.584 24.1099 237.643 23.3528C236.701 22.5957 235.501 22.2172 234.042 22.2172C232.583 22.2172 231.383 22.5957 230.441 23.3528C229.499 24.1099 228.802 25.1025 228.35 26.3305C227.897 27.5584 227.671 28.8834 227.671 30.3052C227.671 31.7271 227.897 33.0474 228.35 34.2662C228.802 35.4849 229.499 36.4682 230.441 37.2161C231.383 37.964 232.583 38.3379 234.042 38.3379Z" fill="#454258"/>
<path d="M160.224 66.3308C159.92 65.3983 159.518 64.5627 159.019 63.8241C158.53 63.0762 157.944 62.4391 157.26 61.9128C156.586 61.3866 155.82 60.9849 154.961 60.7079C154.103 60.431 153.161 60.2925 152.136 60.2925C150.456 60.2925 148.928 60.7264 147.552 61.5943C146.176 62.4622 145.082 63.741 144.27 65.4306C143.457 67.1202 143.051 69.193 143.051 71.649C143.051 74.105 143.462 76.1778 144.284 77.8674C145.105 79.557 146.218 80.8358 147.621 81.7037C149.025 82.5716 150.604 83.0055 152.358 83.0055C153.983 83.0055 155.414 82.6593 156.651 81.9668C157.898 81.2651 158.867 80.2772 159.559 79.003C160.261 77.7197 160.612 76.2101 160.612 74.4743L161.665 74.6959H153.133V71.649H163.936V74.6959C163.936 77.0318 163.437 79.0631 162.44 80.7896C161.452 82.5162 160.086 83.855 158.341 84.806C156.605 85.7477 154.611 86.2186 152.358 86.2186C149.846 86.2186 147.64 85.6277 145.738 84.4459C143.845 83.264 142.368 81.5837 141.306 79.4047C140.253 77.2257 139.727 74.6405 139.727 71.649C139.727 69.4054 140.027 67.388 140.627 65.5968C141.237 63.7964 142.095 62.2637 143.203 60.9988C144.311 59.7339 145.622 58.7644 147.137 58.0904C148.651 57.4164 150.317 57.0794 152.136 57.0794C153.632 57.0794 155.026 57.3056 156.319 57.758C157.621 58.2012 158.779 58.8336 159.795 59.6554C160.82 60.4679 161.674 61.442 162.357 62.5776C163.04 63.704 163.511 64.9551 163.77 66.3308H160.224ZM169.818 85.8308V57.4672H179.402C181.618 57.4672 183.437 57.8457 184.859 58.6028C186.281 59.3507 187.333 60.3802 188.017 61.6913C188.7 63.0023 189.041 64.4935 189.041 66.1646C189.041 67.8358 188.7 69.3177 188.017 70.6103C187.333 71.9029 186.285 72.9185 184.873 73.6572C183.46 74.3866 181.655 74.7513 179.458 74.7513H171.702V71.649H179.347C180.861 71.649 182.08 71.4274 183.003 70.9842C183.936 70.541 184.61 69.9132 185.025 69.1007C185.45 68.279 185.662 67.3003 185.662 66.1646C185.662 65.029 185.45 64.0364 185.025 63.187C184.6 62.3376 183.922 61.682 182.989 61.2204C182.057 60.7495 180.824 60.514 179.291 60.514H173.253V85.8308H169.818ZM183.169 73.0893L190.149 85.8308H186.161L179.291 73.0893H183.169ZM195.928 85.8308H192.327L202.742 57.4672H206.287L216.702 85.8308H213.101L204.626 61.9544H204.404L195.928 85.8308ZM197.258 74.7513H211.772V77.7981H197.258V74.7513ZM220.677 93.8081V64.5581H223.835V67.9373H224.222C224.463 67.568 224.795 67.0971 225.22 66.5247C225.654 65.943 226.272 65.426 227.075 64.9736C227.888 64.5119 228.987 64.2811 230.372 64.2811C232.163 64.2811 233.742 64.7289 235.108 65.6245C236.475 66.5201 237.541 67.7896 238.307 69.4331C239.074 71.0765 239.457 73.0155 239.457 75.2498C239.457 77.5027 239.074 79.4555 238.307 81.1082C237.541 82.7516 236.479 84.0258 235.122 84.9306C233.765 85.8262 232.2 86.274 230.427 86.274C229.061 86.274 227.966 86.0478 227.145 85.5954C226.323 85.1337 225.691 84.6121 225.247 84.0304C224.804 83.4395 224.463 82.9501 224.222 82.5623H223.945V93.8081H220.677ZM223.89 75.1944C223.89 76.801 224.126 78.2182 224.596 79.4462C225.067 80.665 225.755 81.6206 226.66 82.3131C227.565 82.9963 228.673 83.3379 229.984 83.3379C231.35 83.3379 232.491 82.9778 233.405 82.2577C234.328 81.5283 235.02 80.5496 235.482 79.3216C235.953 78.0844 236.188 76.7087 236.188 75.1944C236.188 73.6987 235.958 72.3507 235.496 71.1504C235.044 69.9409 234.356 68.9853 233.432 68.2836C232.518 67.5726 231.369 67.2172 229.984 67.2172C228.654 67.2172 227.537 67.5542 226.632 68.2282C225.727 68.893 225.044 69.8255 224.583 71.0258C224.121 72.2168 223.89 73.6064 223.89 75.1944ZM247.711 73.0339V85.8308H244.443V57.4672H247.711V67.8819H247.988C248.487 66.7832 249.235 65.9107 250.232 65.2644C251.238 64.6089 252.577 64.2811 254.248 64.2811C255.698 64.2811 256.967 64.5719 258.057 65.1536C259.146 65.7261 259.991 66.6078 260.591 67.7988C261.2 68.9807 261.505 70.4856 261.505 72.3138V85.8308H258.237V72.5354C258.237 70.8457 257.798 69.5393 256.921 68.616C256.053 67.6834 254.848 67.2172 253.306 67.2172C252.235 67.2172 251.275 67.4434 250.426 67.8958C249.585 68.3482 248.921 69.0084 248.431 69.8763C247.951 70.7442 247.711 71.7967 247.711 73.0339ZM268.828 93.8081C268.274 93.8081 267.78 93.7619 267.346 93.6696C266.912 93.5865 266.612 93.5034 266.446 93.4203L267.277 90.5396C268.071 90.7427 268.773 90.8166 269.382 90.7612C269.991 90.7058 270.532 90.4334 271.002 89.9441C271.483 89.464 271.921 88.6838 272.318 87.6035L272.927 85.9416L265.061 64.5581H268.606L274.479 81.5098H274.7L280.572 64.5581H284.118L275.088 88.9331C274.682 90.0318 274.179 90.9413 273.578 91.6614C272.978 92.3908 272.281 92.931 271.487 93.2818C270.702 93.6327 269.816 93.8081 268.828 93.8081Z" fill="#454258"/>
<path d="M139.159 98.4036H140.47L143.092 102.817H143.203L145.825 98.4036H147.136L143.72 103.962V107.858H142.575V103.962L139.159 98.4036ZM156.15 103.131C156.15 104.128 155.969 104.99 155.609 105.716C155.249 106.442 154.755 107.003 154.127 107.397C153.5 107.79 152.783 107.987 151.976 107.987C151.17 107.987 150.453 107.79 149.825 107.397C149.197 107.003 148.703 106.442 148.343 105.716C147.983 104.99 147.803 104.128 147.803 103.131C147.803 102.134 147.983 101.272 148.343 100.546C148.703 99.8193 149.197 99.2592 149.825 98.8653C150.453 98.4713 151.17 98.2743 151.976 98.2743C152.783 98.2743 153.5 98.4713 154.127 98.8653C154.755 99.2592 155.249 99.8193 155.609 100.546C155.969 101.272 156.15 102.134 156.15 103.131ZM155.042 103.131C155.042 102.312 154.905 101.621 154.631 101.058C154.36 100.495 153.992 100.069 153.527 99.7793C153.066 99.49 152.549 99.3454 151.976 99.3454C151.404 99.3454 150.885 99.49 150.42 99.7793C149.959 100.069 149.591 100.495 149.317 101.058C149.046 101.621 148.911 102.312 148.911 103.131C148.911 103.95 149.046 104.64 149.317 105.204C149.591 105.767 149.959 106.193 150.42 106.482C150.885 106.772 151.404 106.916 151.976 106.916C152.549 106.916 153.066 106.772 153.527 106.482C153.992 106.193 154.36 105.767 154.631 105.204C154.905 104.64 155.042 103.95 155.042 103.131ZM164.279 98.4036H165.424V104.664C165.424 105.31 165.272 105.887 164.967 106.395C164.665 106.899 164.239 107.298 163.688 107.59C163.137 107.88 162.491 108.024 161.749 108.024C161.008 108.024 160.361 107.88 159.81 107.59C159.259 107.298 158.832 106.899 158.527 106.395C158.225 105.887 158.075 105.31 158.075 104.664V98.4036H159.219V104.571C159.219 105.033 159.321 105.444 159.524 105.804C159.727 106.161 160.017 106.442 160.392 106.649C160.771 106.852 161.223 106.953 161.749 106.953C162.276 106.953 162.728 106.852 163.107 106.649C163.485 106.442 163.774 106.161 163.974 105.804C164.178 105.444 164.279 105.033 164.279 104.571V98.4036ZM167.71 107.858V98.4036H170.905C171.644 98.4036 172.25 98.5298 172.724 98.7822C173.198 99.0314 173.549 99.3746 173.776 99.8116C174.004 100.249 174.118 100.746 174.118 101.303C174.118 101.86 174.004 102.354 173.776 102.785C173.549 103.216 173.199 103.554 172.728 103.8C172.258 104.043 171.656 104.165 170.923 104.165H168.338V103.131H170.886C171.391 103.131 171.797 103.057 172.105 102.909C172.416 102.762 172.641 102.552 172.779 102.281C172.921 102.008 172.992 101.681 172.992 101.303C172.992 100.924 172.921 100.593 172.779 100.31C172.638 100.027 172.411 99.8086 172.101 99.6547C171.79 99.4977 171.379 99.4192 170.868 99.4192H168.855V107.858H167.71ZM172.161 103.611L174.487 107.858H173.158L170.868 103.611H172.161ZM184.852 100.767C184.797 100.299 184.572 99.9363 184.178 99.6778C183.785 99.4192 183.301 99.29 182.729 99.29C182.31 99.29 181.944 99.3577 181.63 99.4931C181.319 99.6285 181.076 99.8147 180.901 100.052C180.728 100.289 180.642 100.558 180.642 100.86C180.642 101.112 180.702 101.329 180.822 101.51C180.945 101.689 181.102 101.838 181.293 101.958C181.484 102.075 181.684 102.172 181.893 102.249C182.103 102.323 182.295 102.383 182.47 102.429L183.431 102.688C183.677 102.752 183.951 102.842 184.252 102.955C184.557 103.069 184.848 103.225 185.125 103.422C185.405 103.616 185.636 103.865 185.817 104.17C185.999 104.474 186.09 104.848 186.09 105.291C186.09 105.802 185.956 106.264 185.688 106.676C185.423 107.089 185.036 107.417 184.525 107.66C184.017 107.903 183.4 108.024 182.673 108.024C181.996 108.024 181.41 107.915 180.915 107.697C180.422 107.478 180.034 107.173 179.751 106.783C179.471 106.392 179.313 105.938 179.276 105.421H180.458C180.488 105.778 180.608 106.073 180.818 106.307C181.03 106.538 181.298 106.71 181.621 106.824C181.947 106.935 182.298 106.99 182.673 106.99C183.11 106.99 183.503 106.919 183.851 106.778C184.198 106.633 184.474 106.433 184.677 106.178C184.88 105.919 184.982 105.618 184.982 105.273C184.982 104.959 184.894 104.704 184.719 104.507C184.543 104.31 184.312 104.15 184.026 104.026C183.74 103.903 183.431 103.796 183.098 103.703L181.935 103.371C181.196 103.159 180.611 102.855 180.181 102.461C179.75 102.068 179.534 101.552 179.534 100.915C179.534 100.386 179.677 99.924 179.964 99.53C180.253 99.133 180.641 98.8252 181.127 98.6067C181.616 98.3851 182.163 98.2743 182.766 98.2743C183.375 98.2743 183.917 98.3836 184.391 98.6021C184.865 98.8176 185.24 99.113 185.517 99.4885C185.797 99.864 185.945 100.29 185.96 100.767H184.852ZM187.972 107.858V98.4036H189.117V106.843H193.512V107.858H187.972ZM202.894 103.131C202.894 104.128 202.714 104.99 202.354 105.716C201.993 106.442 201.499 107.003 200.872 107.397C200.244 107.79 199.527 107.987 198.72 107.987C197.914 107.987 197.197 107.79 196.569 107.397C195.941 107.003 195.447 106.442 195.087 105.716C194.727 104.99 194.547 104.128 194.547 103.131C194.547 102.134 194.727 101.272 195.087 100.546C195.447 99.8193 195.941 99.2592 196.569 98.8653C197.197 98.4713 197.914 98.2743 198.72 98.2743C199.527 98.2743 200.244 98.4713 200.872 98.8653C201.499 99.2592 201.993 99.8193 202.354 100.546C202.714 101.272 202.894 102.134 202.894 103.131ZM201.786 103.131C201.786 102.312 201.649 101.621 201.375 101.058C201.104 100.495 200.736 100.069 200.271 99.7793C199.81 99.49 199.293 99.3454 198.72 99.3454C198.148 99.3454 197.629 99.49 197.165 99.7793C196.703 100.069 196.335 100.495 196.061 101.058C195.79 101.621 195.655 102.312 195.655 103.131C195.655 103.95 195.79 104.64 196.061 105.204C196.335 105.767 196.703 106.193 197.165 106.482C197.629 106.772 198.148 106.916 198.72 106.916C199.293 106.916 199.81 106.772 200.271 106.482C200.736 106.193 201.104 105.767 201.375 105.204C201.649 104.64 201.786 103.95 201.786 103.131ZM211.282 101.358C211.18 101.047 211.046 100.769 210.88 100.523C210.717 100.273 210.522 100.061 210.294 99.8855C210.069 99.7101 209.814 99.5762 209.528 99.4839C209.241 99.3915 208.927 99.3454 208.586 99.3454C208.026 99.3454 207.516 99.49 207.058 99.7793C206.599 100.069 206.234 100.495 205.964 101.058C205.693 101.621 205.557 102.312 205.557 103.131C205.557 103.95 205.694 104.64 205.968 105.204C206.242 105.767 206.613 106.193 207.081 106.482C207.549 106.772 208.075 106.916 208.66 106.916C209.201 106.916 209.678 106.801 210.091 106.57C210.506 106.336 210.829 106.007 211.06 105.582C211.294 105.154 211.411 104.651 211.411 104.073L211.762 104.147H208.918V103.131H212.519V104.147C212.519 104.925 212.353 105.602 212.02 106.178C211.691 106.753 211.236 107.2 210.654 107.517C210.075 107.83 209.411 107.987 208.66 107.987C207.823 107.987 207.087 107.79 206.453 107.397C205.822 107.003 205.33 106.442 204.976 105.716C204.625 104.99 204.449 104.128 204.449 103.131C204.449 102.383 204.549 101.711 204.749 101.113C204.953 100.513 205.239 100.002 205.608 99.5808C205.977 99.1592 206.414 98.836 206.919 98.6114C207.424 98.3867 207.979 98.2743 208.586 98.2743C209.084 98.2743 209.549 98.3497 209.98 98.5006C210.414 98.6483 210.8 98.8591 211.139 99.133C211.48 99.4038 211.765 99.7285 211.993 100.107C212.22 100.483 212.377 100.9 212.464 101.358H211.282ZM214.576 107.858H213.375L216.847 98.4036H218.029L221.5 107.858H220.3L217.475 99.8993H217.401L214.576 107.858ZM215.019 104.165H219.857V105.181H215.019V104.165ZM230.47 98.4036V107.858H229.362L224.21 100.435H224.118V107.858H222.973V98.4036H224.081L229.251 105.845H229.344V98.4036H230.47ZM236.417 107.858V98.4036H237.562V102.614H242.603V98.4036H243.748V107.858H242.603V103.629H237.562V107.858H236.417ZM246.04 107.858V98.4036H251.746V99.4192H247.185V102.614H251.451V103.629H247.185V106.843H251.82V107.858H246.04ZM253.81 107.858V98.4036H257.005C257.743 98.4036 258.349 98.5298 258.823 98.7822C259.297 99.0314 259.648 99.3746 259.876 99.8116C260.104 100.249 260.218 100.746 260.218 101.303C260.218 101.86 260.104 102.354 259.876 102.785C259.648 103.216 259.299 103.554 258.828 103.8C258.357 104.043 257.755 104.165 257.023 104.165H254.438V103.131H256.986C257.491 103.131 257.897 103.057 258.205 102.909C258.516 102.762 258.74 102.552 258.879 102.281C259.02 102.008 259.091 101.681 259.091 101.303C259.091 100.924 259.02 100.593 258.879 100.31C258.737 100.027 258.511 99.8086 258.2 99.6547C257.889 99.4977 257.478 99.4192 256.968 99.4192H254.955V107.858H253.81ZM258.26 103.611L260.587 107.858H259.257L256.968 103.611H258.26ZM262.125 107.858V98.4036H267.831V99.4192H263.27V102.614H267.536V103.629H263.27V106.843H267.905V107.858H262.125Z" fill="#454258"/>
<path d="M76.7373 57.6229H68.7373C68.7373 49.6739 62.2703 43.2059 54.3203 43.2059V35.2059C66.6813 35.2059 76.7373 45.2629 76.7373 57.6229Z" fill="#454258"/>
<path d="M57.1025 77.1839C44.7415 77.1839 34.6855 67.1279 34.6855 54.7679H42.6855C42.6855 62.7169 49.1525 69.1839 57.1025 69.1839V77.1839Z" fill="#454258"/>
<path d="M88.3452 0.662964H22.3802C10.3102 0.662964 0.492188 10.482 0.492188 22.554V88.513C0.492188 100.585 10.3102 110.407 22.3802 110.407H46.6342L33.7852 133.188H43.1222L50.6932 119.768V133.188H60.0292V119.759L67.6062 133.188H76.9422L64.0892 110.407H88.3452C100.415 110.407 110.233 100.585 110.233 88.513V22.554C110.234 10.482 100.416 0.662964 88.3452 0.662964ZM55.3612 86.417C38.6612 86.417 25.1222 72.876 25.1222 56.174C25.1222 39.471 38.6602 25.93 55.3612 25.93C72.0672 25.93 85.6072 39.471 85.6072 56.174C85.6072 72.876 72.0672 86.417 55.3612 86.417ZM88.4032 29.428C84.5732 29.428 81.4392 26.294 81.4392 22.464C81.4392 18.634 84.5732 15.5 88.4032 15.5C92.2332 15.5 95.3672 18.634 95.3672 22.464C95.3672 26.294 92.2332 29.428 88.4032 29.428Z" fill="url(#paint0_linear_50_6)"/>
<defs>
<linearGradient id="paint0_linear_50_6" x1="6.32899" y1="7.66246" x2="104.398" y2="105.732" gradientUnits="userSpaceOnUse">
<stop stop-color="#21D4FD"/>
<stop offset="1" stop-color="#B721FF"/>
</linearGradient>
</defs>
</svg>
